<svg xmlns="http://www.w3.org/2000/svg" style="display:none">

  <symbol id="icon-bell" viewBox="0 0 24 24">
    <path fill-rule="evenodd" d="M5.25 9a6.75 6.75 0 0 1 13.5 0v.75c0 2.123.8 4.057 2.118 5.52a.75.75 0 0 1-.297 1.206c-1.544.57-3.16.99-4.831 1.243a3.75 3.75 0 1 1-7.48 0 24.585 24.585 0 0 1-4.831-1.244.75.75 0 0 1-.298-1.205A8.217 8.217 0 0 0 5.25 9.75V9Zm4.502 8.9a2.25 2.25 0 1 0 4.496 0 25.057 25.057 0 0 1-4.496 0Z" clip-rule="evenodd"/>
  </symbol>

  <symbol id="icon-cog-6-tooth" viewBox="0 0 24 24">
    <path fill-rule="evenodd" d="M11.078 2.25c-.917 0-1.699.663-1.85 1.567L9.05 4.889c-.02.12-.115.26-.297.348a7.493 7.493 0 0 0-.986.57c-.166.115-.334.126-.45.083L6.3 5.508a1.875 1.875 0 0 0-2.282.819l-.922 1.597a1.875 1.875 0 0 0 .432 2.385l.84.692c.095.078.17.229.154.43a7.598 7.598 0 0 0 0 1.139c.015.2-.059.352-.153.43l-.841.692a1.875 1.875 0 0 0-.432 2.385l.922 1.597a1.875 1.875 0 0 0 2.282.818l1.019-.382c.115-.043.283-.031.45.082.312.214.641.405.985.57.182.088.277.228.297.35l.178 1.071c.151.904.933 1.567 1.85 1.567h1.844c.916 0 1.699-.663 1.85-1.567l.178-1.072c.02-.12.114-.26.297-.349.344-.165.673-.356.985-.57.167-.114.335-.125.45-.082l1.02.382a1.875 1.875 0 0 0 2.28-.819l.923-1.597a1.875 1.875 0 0 0-.432-2.385l-.84-.692c-.095-.078-.17-.229-.154-.43a7.614 7.614 0 0 0 0-1.139c-.016-.2.059-.352.153-.43l.84-.692c.708-.582.891-1.59.433-2.385l-.922-1.597a1.875 1.875 0 0 0-2.282-.818l-1.02.382c-.114.043-.282.031-.449-.083a7.49 7.49 0 0 0-.985-.57c-.183-.087-.277-.227-.297-.348l-.179-1.072a1.875 1.875 0 0 0-1.85-1.567h-1.843ZM12 15.75a3.75 3.75 0 1 0 0-7.5 3.75 3.75 0 0 0 0 7.5Z" clip-rule="evenodd"/>
  </symbol>

  <symbol id="icon-credit-card" viewBox="0 0 24 24">
    <path d="M4.5 3.75a3 3 0 0 0-3 3v.75h21v-.75a3 3 0 0 0-3-3h-15Z"/>
    <path fill-rule="evenodd" d="M22.5 9.75h-21v7.5a3 3 0 0 0 3 3h15a3 3 0 0 0 3-3v-7.5Zm-18 3.75a.75.75 0 0 1 .75-.75h6a.75.75 0 0 1 0 1.5h-6a.75.75 0 0 1-.75-.75Zm.75 2.25a.75.75 0 0 0 0 1.5h3a.75.75 0 0 0 0-1.5h-3Z" clip-rule="evenodd"/>
  </symbol>

  <symbol id="icon-envelope" viewBox="0 0 24 24">
    <path d="M1.5 8.67v8.58a3 3 0 0 0 3 3h15a3 3 0 0 0 3-3V8.67l-8.928 5.493a3 3 0 0 1-3.144 0L1.5 8.67Z"/>
    <path d="M22.5 6.908V6.75a3 3 0 0 0-3-3h-15a3 3 0 0 0-3 3v.158l9.714 5.978a1.5 1.5 0 0 0 1.572 0L22.5 6.908Z"/>
  </symbol>

  <symbol id="icon-heart" viewBox="0 0 24 24">
    <path d="m11.645 20.91-.007-.003-.022-.012a15.247 15.247 0 0 1-.383-.218 25.18 25.18 0 0 1-4.244-3.17C4.688 15.36 2.25 12.174 2.25 8.25 2.25 5.322 4.714 3 7.688 3A5.5 5.5 0 0 1 12 5.052 5.5 5.5 0 0 1 16.313 3c2.973 0 5.437 2.322 5.437 5.25 0 3.925-2.438 7.111-4.739 9.256a25.175 25.175 0 0 1-4.244 3.17 15.247 15.247 0 0 1-.383.219l-.022.012-.007.004-.003.001a.752.752 0 0 1-.704 0l-.003-.001Z"/>
  </symbol>

  <symbol id="icon-home" viewBox="0 0 24 24">
    <path d="M11.47 3.841a.75.75 0 0 1 1.06 0l8.69 8.69a.75.75 0 1 0 1.06-1.061l-8.689-8.69a2.25 2.25 0 0 0-3.182 0l-8.69 8.69a.75.75 0 1 0 1.061 1.06l8.69-8.689Z"/>
    <path d="m12 5.432 8.159 8.159c.03.03.06.058.091.086v6.198c0 1.035-.84 1.875-1.875 1.875H15a.75.75 0 0 1-.75-.75v-4.5a.75.75 0 0 0-.75-.75h-3a.75.75 0 0 0-.75.75V21a.75.75 0 0 1-.75.75H5.625a1.875 1.875 0 0 1-1.875-1.875v-6.198a2.29 2.29 0 0 0 .091-.086L12 5.432Z"/>
  </symbol>

  <symbol id="icon-magnifying-glass" viewBox="0 0 24 24">
    <path fill-rule="evenodd" d="M10.5 3.75a6.75 6.75 0 1 0 0 13.5 6.75 6.75 0 0 0 0-13.5ZM2.25 10.5a8.25 8.25 0 1 1 14.59 5.28l4.69 4.69a.75.75 0 1 1-1.06 1.06l-4.69-4.69A8.25 8.25 0 0 1 2.25 10.5Z" clip-rule="evenodd"/>
  </symbol>

  <symbol id="icon-map-pin" viewBox="0 0 24 24">
    <path fill-rule="evenodd" d="m11.54 22.351.07.04.028.016a.76.76 0 0 0 .723 0l.028-.015.071-.041a16.975 16.975 0 0 0 1.144-.742 19.58 19.58 0 0 0 2.683-2.282c1.944-1.99 3.963-4.98 3.963-8.827a8.25 8.25 0 0 0-16.5 0c0 3.846 2.02 6.837 3.963 8.827a19.58 19.58 0 0 0 2.682 2.282 16.975 16.975 0 0 0 1.145.742ZM12 13.5a3 3 0 1 0 0-6 3 3 0 0 0 0 6Z" clip-rule="evenodd"/>
  </symbol>

  <symbol id="icon-moon" viewBox="0 0 24 24">
	<path fill-rule="evenodd" d="M9.528 1.718a.75.75 0 0 1 .162.819A8.97 8.97 0 0 0 9 6a9 9 0 0 0 9 9 8.97 8.97 0 0 0 3.463-.69.75.75 0 0 1 .981.98 10.503 10.503 0 0 1-9.694 6.46c-5.799 0-10.5-4.7-10.5-10.5 0-4.368 2.667-8.112 6.46-9.694a.75.75 0 0 1 .818.162Z" clip-rule="evenodd" />
  </symbol>

  <symbol id="icon-phone" viewBox="0 0 24 24">
    <path fill-rule="evenodd" d="M1.5 4.5a3 3 0 0 1 3-3h1.372c.86 0 1.61.586 1.819 1.42l1.105 4.423a1.875 1.875 0 0 1-.694 1.955l-1.293.97c-.135.101-.164.249-.126.352a11.285 11.285 0 0 0 6.697 6.697c.103.038.25.009.352-.126l.97-1.293a1.875 1.875 0 0 1 1.955-.694l4.423 1.105c.834.209 1.42.959 1.42 1.82V19.5a3 3 0 0 1-3 3h-2.25C8.552 22.5 1.5 15.448 1.5 6.75V4.5Z" clip-rule="evenodd"/>
  </symbol>

  <symbol id="icon-shield-check" viewBox="0 0 24 24">
    <path fill-rule="evenodd" d="M12.516 2.17a.75.75 0 0 0-1.032 0 11.209 11.209 0 0 1-7.877 3.08.75.75 0 0 0-.722.515A12.74 12.74 0 0 0 2.25 9.75c0 5.942 4.064 10.933 9.563 12.348a.749.749 0 0 0 .374 0c5.499-1.415 9.563-6.406 9.563-12.348 0-1.39-.223-2.73-.635-3.985a.75.75 0 0 0-.722-.516l-.143.001c-2.996 0-5.717-1.17-7.734-3.08Zm3.094 8.016a.75.75 0 1 0-1.22-.872l-3.236 4.53L9.53 12.22a.75.75 0 0 0-1.06 1.06l2.25 2.25a.75.75 0 0 0 1.14-.094l3.75-5.25Z" clip-rule="evenodd"/>
  </symbol>

  <symbol id="icon-shopping-bag" viewBox="0 0 24 24">
    <path fill-rule="evenodd" d="M7.5 6v.75H5.513c-.96 0-1.764.724-1.865 1.679l-1.263 12A1.875 1.875 0 0 0 4.25 22.5h15.5a1.875 1.875 0 0 0 1.865-2.071l-1.263-12a1.875 1.875 0 0 0-1.865-1.679H16.5V6a4.5 4.5 0 1 0-9 0ZM12 3a3 3 0 0 0-3 3v.75h6V6a3 3 0 0 0-3-3Zm-3 8.25a3 3 0 1 0 6 0v-.75a.75.75 0 0 1 1.5 0v.75a4.5 4.5 0 1 1-9 0v-.75a.75.75 0 0 1 1.5 0v.75Z" clip-rule="evenodd"/>
  </symbol>

  <symbol id="icon-shopping-cart" viewBox="0 0 24 24">
    <path d="M2.25 2.25a.75.75 0 0 0 0 1.5h1.386c.17 0 .318.114.362.278l2.558 9.592a3.752 3.752 0 0 0-2.806 3.63c0 .414.336.75.75.75h15.75a.75.75 0 0 0 0-1.5H5.378A2.25 2.25 0 0 1 7.5 15h11.218a.75.75 0 0 0 .674-.421 60.358 60.358 0 0 0 2.96-7.228.75.75 0 0 0-.525-.965A60.864 60.864 0 0 0 5.68 4.509l-.232-.867A1.875 1.875 0 0 0 3.636 2.25H2.25ZM3.75 20.25a1.5 1.5 0 1 1 3 0 1.5 1.5 0 0 1-3 0ZM16.5 20.25a1.5 1.5 0 1 1 3 0 1.5 1.5 0 0 1-3 0Z"/>
  </symbol>

  <symbol id="icon-star" viewBox="0 0 24 24">
    <path fill-rule="evenodd" d="M10.788 3.21c.448-1.077 1.976-1.077 2.424 0l2.082 5.006 5.404.434c1.164.093 1.636 1.545.749 2.305l-4.117 3.527 1.257 5.273c.271 1.136-.964 2.033-1.96 1.425L12 18.354 7.373 21.18c-.996.608-2.231-.29-1.96-1.425l1.257-5.273-4.117-3.527c-.887-.76-.415-2.212.749-2.305l5.404-.434 2.082-5.005Z" clip-rule="evenodd"/>
  </symbol>

  <symbol id="icon-sun" viewBox="0 0 24 24">
	<path d="M12 2.25a.75.75 0 0 1 .75.75v2.25a.75.75 0 0 1-1.5 0V3a.75.75 0 0 1 .75-.75ZM7.5 12a4.5 4.5 0 1 1 9 0 4.5 4.5 0 0 1-9 0ZM18.894 6.166a.75.75 0 0 0-1.06-1.06l-1.591 1.59a.75.75 0 1 0 1.06 1.061l1.591-1.59ZM21.75 12a.75.75 0 0 1-.75.75h-2.25a.75.75 0 0 1 0-1.5H21a.75.75 0 0 1 .75.75ZM17.834 18.894a.75.75 0 0 0 1.06-1.06l-1.59-1.591a.75.75 0 1 0-1.061 1.06l1.59 1.591ZM12 18a.75.75 0 0 1 .75.75V21a.75.75 0 0 1-1.5 0v-2.25A.75.75 0 0 1 12 18ZM7.758 17.303a.75.75 0 0 0-1.061-1.06l-1.591 1.59a.75.75 0 0 0 1.06 1.061l1.591-1.59ZM6 12a.75.75 0 0 1-.75.75H3a.75.75 0 0 1 0-1.5h2.25A.75.75 0 0 1 6 12ZM6.697 7.757a.75.75 0 0 0 1.06-1.06l-1.59-1.591a.75.75 0 0 0-1.061 1.06l1.59 1.591Z" />
  </symbol>

  <symbol id="icon-truck" viewBox="0 0 24 24">
    <path d="M3.375 4.5C2.339 4.5 1.5 5.34 1.5 6.375V13.5h12V6.375c0-1.036-.84-1.875-1.875-1.875h-8.25ZM13.5 15h-12v2.625c0 1.035.84 1.875 1.875 1.875h.375a3 3 0 1 1 6 0h3a.75.75 0 0 0 .75-.75V15Z"/>
    <path d="M8.25 19.5a1.5 1.5 0 1 0-3 0 1.5 1.5 0 0 0 3 0ZM15.75 6.75a.75.75 0 0 0-.75.75v11.25c0 .087.015.17.042.248a3 3 0 0 1 5.958.464c.853-.175 1.522-.935 1.464-1.883a18.659 18.659 0 0 0-3.732-10.104 1.837 1.837 0 0 0-1.47-.725H15.75Z"/>
    <path d="M19.5 19.5a1.5 1.5 0 1 0-3 0 1.5 1.5 0 0 0 3 0Z"/>
  </symbol>

  <symbol id="icon-user" viewBox="0 0 24 24">
    <path fill-rule="evenodd" d="M7.5 6a4.5 4.5 0 1 1 9 0 4.5 4.5 0 0 1-9 0ZM3.751 20.105a8.25 8.25 0 0 1 16.498 0 .75.75 0 0 1-.437.695A18.683 18.683 0 0 1 12 22.5c-2.786 0-5.433-.608-7.812-1.7a.75.75 0 0 1-.437-.695Z" clip-rule="evenodd"/>
  </symbol>

  <symbol id="icon-users" viewBox="0 0 24 24">
    <path d="M4.5 6.375a4.125 4.125 0 1 1 8.25 0 4.125 4.125 0 0 1-8.25 0ZM14.25 8.625a3.375 3.375 0 1 1 6.75 0 3.375 3.375 0 0 1-6.75 0ZM1.5 19.125a7.125 7.125 0 0 1 14.25 0v.003l-.001.119a.75.75 0 0 1-.363.63 13.067 13.067 0 0 1-6.761 1.873c-2.472 0-4.786-.684-6.76-1.873a.75.75 0 0 1-.364-.63l-.001-.122ZM17.25 19.128l-.001.144a2.25 2.25 0 0 1-.233.96 10.088 10.088 0 0 0 5.06-1.01.75.75 0 0 0 .42-.643 4.875 4.875 0 0 0-6.957-4.611 8.586 8.586 0 0 1 1.71 5.157v.003Z"/>
  </symbol>

</svg>